<svg width="100" height="100" viewBox="0 0 100 100" xmlns="http://www.w3.org/2000/svg">
  <defs>
    <linearGradient id="blueGradient" x1="0%" y1="0%" x2="100%" y2="100%">
      <stop offset="0%" style="stop-color:#00B8FF;stop-opacity:1" />
      <stop offset="100%" style="stop-color:#0078FF;stop-opacity:1" />
    </linearGradient>
  </defs>
  <!-- Circular arrow that wraps around (open at top right) -->
  <path d="M 15 85 Q 8 65, 12 50 Q 15 35, 25 25 Q 35 15, 50 18 Q 65 20, 75 30 Q 82 38, 85 48" 
        stroke="url(#blueGradient)" stroke-width="7" fill="none" stroke-linecap="round"/>
  <!-- Arrowhead -->
  <path d="M 78 46 L 85 48 L 78 50" 
        stroke="url(#blueGradient)" stroke-width="7" fill="none" stroke-linecap="round"/>
  <!-- Line graph inside circle (upward trending line) -->
  <polyline points="28,68 38,55 48,48 58,42 68,36" 
            stroke="url(#blueGradient)" stroke-width="4.5" fill="none" stroke-linecap="round"/>
  <path d="M 68 36 L 73 28" 
        stroke="url(#blueGradient)" stroke-width="4.5" fill="none" stroke-linecap="round"/>
  <!-- Bar chart inside circle (3 bars increasing height) -->
  <rect x="32" y="63" width="10" height="13" fill="url(#blueGradient)"/>
  <rect x="45" y="60" width="10" height="16" fill="url(#blueGradient)"/>
  <rect x="58" y="57" width="10" height="19" fill="url(#blueGradient)"/>
</svg>
